<svg width="1080" height="608" viewBox="0 0 1080 608" fill="none" xmlns="http://www.w3.org/2000/svg">
<g clip-path="url(#clip0_8_247)">
<rect x="395" y="227" width="244" height="149" rx="36" stroke="black" stroke-width="4" stroke-linecap="round" stroke-linejoin="round"/>
<rect x="408" y="243" width="217" height="118" rx="23" stroke="black" stroke-width="4" stroke-linecap="round" stroke-linejoin="round"/>
<rect x="150" y="207" width="171" height="116" rx="23" stroke="black" stroke-width="4" stroke-linecap="round" stroke-linejoin="round"/>
<rect x="160" y="220" width="149" height="91" rx="23" stroke="black" stroke-width="4" stroke-linecap="round" stroke-linejoin="round"/>
<path d="M40.9776 537.226L51.0698 547.835C55.9666 552.983 55.3439 561.234 49.7301 565.588L39.2015 573.755M64.0672 577.679H93.6692M17 522.434V585C17 591.627 22.3726 597 29 597H124C130.627 597 136 591.627 136 585V522.434M17 522.434V513C17 506.373 22.3726 501 29 501H124C130.627 501 136 506.373 136 513V522.434M17 522.434H136" stroke="black" stroke-width="4" stroke-miterlimit="16" stroke-linecap="round" stroke-linejoin="round"/>
<path d="M174.14 349H158.688C155.272 349 153.428 344.995 155.649 342.399L161.368 335.716C162.134 334.821 163.255 334.309 164.432 334.317L204.837 334.567M174.14 349L181.293 332M174.14 349H200.068M200.068 349L204.837 334.567M200.068 349H232.553M204.837 334.567L282.621 335.049M232.553 349V332M232.553 349H261.759M261.759 349L256.991 332M261.759 349H288.88M288.88 349H306.256C309.832 349 311.611 344.666 309.066 342.154L303.151 336.313C302.408 335.58 301.409 335.166 300.365 335.159L282.621 335.049M288.88 349L282.621 335.049" stroke="black" stroke-width="4" stroke-linecap="round" stroke-linejoin="round"/>
<path d="M123 364.218V364.218C123 373.487 130.513 381 139.782 381H329.552C338.184 381 343.923 372.071 340.338 364.218V364.218M123 364.218L142.989 335.139C148.212 327.54 156.842 323 166.063 323H303.523C314.486 323 324.441 329.398 328.994 339.371L340.338 364.218M123 364.218H340.338" stroke="black" stroke-width="4" stroke-linecap="round" stroke-linejoin="round"/>
<rect x="485" y="5" width="99" height="111" rx="23" stroke="black" stroke-width="4" stroke-linecap="round" stroke-linejoin="round"/>
<rect x="466" y="395" width="94" height="15" rx="7.5" stroke="black" stroke-width="4" stroke-linecap="round" stroke-linejoin="round"/>
<path d="M580.739 544.98L629.999 594.24C639.3 603.541 654.38 603.541 663.681 594.24V594.24C672.982 584.939 672.982 569.859 663.681 560.558L614.421 511.298M580.739 544.98L572.74 536.98C571.112 535.352 571.112 532.713 572.74 531.086V531.086C574.367 529.458 574.367 526.819 572.74 525.191L566.424 518.876C561.309 513.76 561.309 505.466 566.424 500.351L570.424 496.351C575.54 491.236 583.834 491.236 588.949 496.351L595.58 502.982C597.034 504.436 599.39 504.436 600.843 502.982V502.982C602.296 501.529 604.653 501.529 606.106 502.982L614.421 511.298M580.739 544.98L614.421 511.298" stroke="black" stroke-width="4" stroke-linecap="round" stroke-linejoin="round"/>
<path d="M388.704 429.808C391.105 425.03 396.018 422.037 401.365 422.094L605.494 424.298C611.197 424.36 616.292 427.874 618.375 433.183L626.499 453.886C630.103 463.069 623.332 473 613.467 473H389.703C379.283 473 372.515 462.024 377.194 452.714L388.704 429.808Z" stroke="black" stroke-width="4" stroke-linecap="round" stroke-linejoin="round"/>
<path d="M414.86 456H397.693C394.667 456 392.737 452.77 394.17 450.105L399.698 439.827C400.402 438.519 401.772 437.708 403.257 437.721L601.987 439.477C603.546 439.491 604.955 440.409 605.597 441.83L609.448 450.353C610.645 453 608.708 456 605.803 456H590.974M414.86 456L422.316 432.3M414.86 456H437.825M437.825 456L443.491 432.3M437.825 456H460.491M460.491 456L464.965 432.3M460.491 456H481.667M481.667 456L485.246 432.3M481.667 456H505.526M505.526 456L506.719 432.3M505.526 456H526.702M526.702 456V432M526.702 456H548.772M548.772 456L547.579 432M548.772 456H569.947M569.947 456L567.263 432.3M569.947 456H590.974M590.974 456L585.754 432.3" stroke="black" stroke-width="4" stroke-linecap="round" stroke-linejoin="round"/>
<path d="M866 213.654V195C866 187.268 872.268 181 880 181H1035C1042.73 181 1049 187.268 1049 195V213.654M866 213.654H1049M866 213.654V236.122M1049 213.654V236.122M1049 236.122H901.467M1049 236.122V261.587M866 236.122H879.114M866 236.122V261.587M866 261.587H1049M866 261.587V292.293M1049 261.587V292.293M1049 292.293V309C1049 316.732 1042.73 323 1035 323H880C872.268 323 866 316.732 866 309V292.293M1049 292.293H866M902.66 277.464H928.292M902.66 249.903H928.292M928.292 306.224H902.66M902.66 197.776H914.283" stroke="black" stroke-width="4" stroke-linecap="round" stroke-linejoin="round"/>
<path d="M11.1207 335.303C10.786 325.607 16.3479 316.555 25.4235 313.127C35.356 309.376 44.032 306.969 53.6865 305.019C65.8698 302.559 77.5741 310.686 80.2642 322.82C88.9666 362.075 93.2346 390.767 95.7069 431.242C96.3614 441.957 89.6731 451.867 79.3094 454.665C66.81 458.041 56.0588 459.825 43.6172 460.734C31.5841 461.613 21.2331 452.593 19.6642 440.63C14.6352 402.284 12.4747 374.526 11.1207 335.303Z" stroke="black" stroke-width="4" stroke-linecap="round" stroke-linejoin="round"/>
<path d="M22.7178 344.82C21.7599 336.088 27.2446 327.94 35.695 325.541L47.1374 322.293C57.7098 319.292 68.4802 326.383 69.9016 337.281L78.3637 402.157C79.4814 410.726 74.3516 418.88 66.1432 421.582L53.4575 425.758C42.5888 429.336 31.1842 421.998 29.9365 410.624L22.7178 344.82Z" stroke="black" stroke-width="4" stroke-linecap="round" stroke-linejoin="round"/>
<rect x="660" y="376" width="78" height="125" rx="14" stroke="black" stroke-width="4" stroke-linecap="round" stroke-linejoin="round"/>
<rect x="495" y="376" width="35" height="19" stroke="black" stroke-width="4" stroke-linecap="round" stroke-linejoin="round"/>
<path d="M759.492 320C792.669 309.971 775.498 279.294 734.754 288.733M734.754 288.733C734.754 287.874 734.754 286.904 734.754 285.92C734.754 282.076 737.558 278.694 740.732 276.528C744.116 274.218 748.175 270.078 750.761 262.776C755.596 249.124 734.526 239.549 721.039 259.036C719.488 261.278 717.089 262.87 714.459 263.591C709.396 264.978 701.391 268.641 699.249 278.114C696.048 292.273 724.569 290.503 734.754 288.733Z" stroke="black" stroke-width="4" stroke-linecap="round" stroke-linejoin="round"/>
<path d="M682 297C687.767 299.056 693.049 300.734 698.054 302.017M759 297C734.112 305.929 718.379 307.229 698.054 302.017M698.054 302.017V326.41C698.054 329.873 700.279 332.971 703.608 333.928C719.125 338.39 729.007 338.135 744.73 332.217" stroke="black" stroke-width="4" stroke-linecap="round" stroke-linejoin="round"/>
<path d="M706 318C719.518 320.555 727.353 320.776 742 318" stroke="black" stroke-width="4" stroke-linecap="round" stroke-linejoin="round"/>
<path d="M692 340C715.281 346.387 728.775 346.941 754 340" stroke="black" stroke-width="4" stroke-linecap="round" stroke-linejoin="round"/>
<path d="M684.22 338C609.881 363.583 818.681 372.217 757.67 340.878" stroke="black" stroke-width="4" stroke-linecap="round" stroke-linejoin="round"/>
<path d="M997.001 490.62C1001.73 481.878 1012.66 478.629 1021.4 483.363L1040.53 493.723C1049.27 498.457 1052.52 509.381 1047.79 518.122L1016.52 575.857C1008.93 589.881 991.403 595.094 977.378 587.499V587.499C963.354 579.905 958.141 562.379 965.736 548.354L997.001 490.62Z" stroke="black" stroke-width="4" stroke-linecap="round" stroke-linejoin="round"/>
<path d="M1025.21 458.439C1028.36 452.612 1035.65 450.446 1041.47 453.601L1055.45 461.17C1061.28 464.325 1063.44 471.608 1060.29 477.436L1048.99 498.299L1013.91 479.302L1025.21 458.439Z" stroke="black" stroke-width="4" stroke-linecap="round" stroke-linejoin="round"/>
<circle cx="1034.64" cy="466.135" r="3.57252" transform="rotate(28.4367 1034.64 466.135)" fill="black"/>
<circle cx="1048.25" cy="473.506" r="3.57252" transform="rotate(28.4367 1048.25 473.506)" fill="black"/>
<path d="M977.251 550.847C969.74 564.618 977.058 581.213 995.916 578.898" stroke="black" stroke-width="4" stroke-linecap="round" stroke-linejoin="round"/>
<path d="M339.358 92.0385H313.237M316.502 148.991H300.322C299.83 148.991 299.332 148.952 298.855 148.831C280.516 144.194 280.245 96.7997 298.864 92.193C299.335 92.0766 299.826 92.0385 300.311 92.0385H313.237M313.237 92.0385L310.565 70.7562C309.081 55.1691 380.915 47.3756 380.915 70.7562V78.25M352.419 146.593C359.479 148.782 369.346 149.527 382.103 149.773M380.915 78.25V102.23C380.69 112.917 377.92 116.51 366.37 116.918H349.154C316.502 118.716 316.502 135.954 316.502 135.954C316.502 135.954 316.502 134.303 316.502 163.079C316.502 191.856 382.103 192.755 382.103 163.079V149.773M380.915 78.25L407.083 79.6861C407.84 79.7276 408.604 79.8695 409.301 80.1685C433.349 90.4865 419.498 149.89 398.725 149.89C392.722 149.89 387.183 149.871 382.103 149.773" stroke="black" stroke-width="4" stroke-linecap="round" stroke-linejoin="round"/>
<circle cx="327" cy="76" r="4" stroke="black" stroke-width="4" stroke-linecap="round" stroke-linejoin="round"/>
<path d="M365.5 161C367.273 161 369 162.623 369 165C369 167.377 367.273 169 365.5 169C363.727 169 362 167.377 362 165C362 162.623 363.727 161 365.5 161Z" stroke="black" stroke-width="4" stroke-linecap="round" stroke-linejoin="round"/>
<path d="M699 477C701.519 477 704 479.427 704 483C704 486.573 701.519 489 699 489C696.481 489 694 486.573 694 483C694 479.427 696.481 477 699 477Z" stroke="black" stroke-width="4" stroke-linecap="round" stroke-linejoin="round"/>
<path d="M699 446C703.516 446 707 449.453 707 453.5C707 457.547 703.516 461 699 461C694.484 461 691 457.547 691 453.5C691 449.453 694.484 446 699 446Z" stroke="black" stroke-width="4" stroke-linecap="round" stroke-linejoin="round"/>
<path d="M673 419H723" stroke="black" stroke-width="4" stroke-linecap="round" stroke-linejoin="round"/>
<path d="M680 403H718" stroke="black" stroke-width="4" stroke-linecap="round" stroke-linejoin="round"/>
<path d="M687 395H713" stroke="black" stroke-width="4" stroke-linecap="round" stroke-linejoin="round"/>
<ellipse cx="1031.5" cy="249.5" rx="2.5" ry="1.5" fill="black"/>
<ellipse cx="1031.5" cy="249.5" rx="2.5" ry="1.5" fill="black"/>
<circle cx="881.5" cy="249.5" r="1.5" fill="black"/>
<ellipse cx="881.5" cy="199.5" rx="1.5" ry="2.5" fill="black"/>
<ellipse cx="1010" cy="199.5" rx="3" ry="2.5" fill="black"/>
<ellipse cx="1032" cy="199" rx="7" ry="6" stroke="black" stroke-width="4" stroke-linecap="round" stroke-linejoin="round"/>
<ellipse cx="1031.5" cy="277" rx="2.5" ry="2" fill="black"/>
<ellipse cx="881.5" cy="277" rx="1.5" ry="2" fill="black"/>
<circle cx="1031.5" cy="306.5" r="2.5" fill="black"/>
<ellipse cx="881.5" cy="306.5" rx="1.5" ry="2.5" fill="black"/>
<path d="M586.693 175.215C583.032 171.061 569.991 171.122 559.776 173.771C557.528 174.354 555.191 172.727 555.191 170.404C553.383 150.818 539.44 145.562 528.047 144.094C516.654 142.626 519.36 158.774 514.407 166.994C510.905 172.805 502.917 175.682 498.534 176.87C496.609 177.391 494.824 178.427 493.81 180.144C490.902 185.069 486.166 196.027 495.52 203.988C507.939 214.557 570.336 208.979 586.693 203.988C603.05 198.997 590.934 180.026 586.693 175.215Z" stroke="black" stroke-width="4" stroke-linecap="round" stroke-linejoin="round"/>
<path d="M317.348 589.998H384.986C417.909 590.319 404.353 551.735 385.999 548.415C385.33 548.294 384.645 548.319 383.972 548.419L381.635 548.765C376.4 549.54 371.873 544.941 370.325 539.881C369.038 535.677 366.236 531.629 360.297 530.858C353.961 530.036 347.251 525.231 346.971 518.848C346.859 516.291 346.513 513.813 345.78 511.802C338.084 490.694 299.691 490.772 287.72 511.802C285.785 515.201 285.404 519.882 285.64 524.267C285.957 530.124 280.935 535.658 275.134 536.521C242.943 541.308 240.182 587.348 268.566 589.998H317.348ZM317.348 589.998V540.533M337.999 557.712L328.122 567.487M296.698 557.712L305.377 566.302" stroke="black" stroke-width="4" stroke-linecap="round" stroke-linejoin="round"/>
<path d="M695.116 87.2616C697.202 80.9089 697.258 76.9553 695.116 69.1082C690.153 49.7629 713.464 36.2281 728.705 37.9597C730.631 38.1786 730.446 40.4349 728.591 40.9941C715.207 45.026 707.943 54.9807 707.289 70.001C707.289 79.5241 707.572 84.2524 698.679 90.5352M672.255 87.2616C607.533 90.5352 674.037 106.605 723.321 97.6775M663.052 108.689C667.453 115.922 678.577 116.688 708.179 114.343M663.052 122.08C668.853 127.741 680.79 128.477 707.289 128.33M659.786 139.043C680.257 145.769 692.375 145.745 714.711 141.424M654.145 137.853C559.139 156.899 805.56 167.315 725.102 142.019M682.053 36.6702C656.52 54.5323 667.424 70.7624 678.313 81.1884C679.622 82.4421 681.682 81.3602 681.431 79.5649C679.522 65.8783 676.898 54.9484 691.85 43.5149C711.27 28.6645 706.615 4.82523 695.825 0.637999C694.279 0.0382211 693.418 1.83237 694.37 3.18967C699.275 10.1842 701.7 20.5567 682.053 36.6702ZM730.067 88.6746C753.704 89.5458 755.82 120.2 725.259 124.546C723.225 124.835 722.421 122.191 724.094 120.996C739.442 110.038 739.599 98.9743 729.394 92.5146C727.653 91.4129 728.008 88.5987 730.067 88.6746Z" stroke="black" stroke-width="4" stroke-linecap="round" stroke-linejoin="round"/>
<path d="M280.961 450.781L246.56 485.211C246.051 485.721 245.296 485.91 244.597 485.735C224.574 480.725 214.087 492.291 215.062 513.362C215.149 515.235 217.592 515.797 218.718 514.299C237.251 489.65 252.867 509.227 235.413 529.636C234.35 530.879 235.001 532.869 236.634 532.956C256.653 534.015 262.689 515.891 259.586 500.745C259.447 500.066 259.644 499.359 260.134 498.869L291.081 467.896C291.583 467.393 292.334 467.201 293.024 467.374C321.356 474.45 329.868 462.567 327.671 445.125C327.477 443.578 325.617 442.963 324.424 443.967C300.677 463.946 292.431 447.345 309.246 423.343C310.206 421.973 309.242 420.038 307.571 420.124C286.546 421.219 281.901 429.308 281.549 449.381C281.54 449.903 281.33 450.411 280.961 450.781Z" stroke="black" stroke-width="4" stroke-linecap="round" stroke-linejoin="round"/>
<path d="M132.553 47.1648C135.597 -7.65303 66.1379 -15.0611 65.7952 45.5101C65.7876 46.8477 64.4969 47.8891 63.189 47.6087C20.4848 38.4513 8.71785 92 65.8258 92H132.201C194.56 92 174.083 30.7833 135.779 49.3054C134.285 50.0277 132.461 48.8213 132.553 47.1648Z" stroke="black" stroke-width="4" stroke-linecap="round" stroke-linejoin="round"/>
<path d="M1007.07 17.6924L992.451 15.3164C991.372 15.141 990.352 15.8651 990.161 16.9421L987.733 30.665C987.599 31.4216 987.044 32.0346 986.304 32.2422L973.07 35.9558C972.232 36.191 971.339 35.8572 970.86 35.1303L963.126 23.3881C962.545 22.5067 961.38 22.2281 960.464 22.7517L946.309 30.8396C945.303 31.4144 944.994 32.7213 945.637 33.6855L955.386 48.3097C955.827 48.971 955.835 49.8305 955.406 50.4993L948.373 61.4573C947.981 62.0676 947.29 62.4181 946.566 62.3732L930.661 61.3876C929.533 61.3177 928.571 62.1961 928.539 63.3262L928.044 80.494C928.018 81.3938 928.596 82.2001 929.457 82.4639L943.035 86.6251C943.875 86.8826 944.449 87.6585 944.449 88.5373V101.75C944.449 102.22 944.283 102.676 943.98 103.036L934.858 113.889C934.329 114.519 934.239 115.408 934.632 116.131L943.408 132.291C943.967 133.322 945.29 133.652 946.268 133.005L958.77 124.741C959.349 124.358 960.084 124.303 960.713 124.594L971.999 129.816C972.706 130.143 973.159 130.852 973.159 131.631V146.761C973.159 147.733 973.857 148.564 974.814 148.731L991.636 151.675C992.68 151.857 993.685 151.194 993.928 150.163L997.404 135.391C997.575 134.664 998.137 134.093 998.861 133.91L1011.74 130.655C1012.47 130.47 1013.25 130.712 1013.74 131.283L1022.75 141.662C1023.45 142.469 1024.66 142.583 1025.5 141.921L1038.73 131.475C1039.53 130.838 1039.73 129.693 1039.17 128.827L1030.91 115.915C1030.52 115.308 1030.49 114.539 1030.82 113.902L1036.3 103.544C1036.64 102.889 1037.32 102.478 1038.07 102.478H1051.01C1051.99 102.478 1052.82 101.765 1052.98 100.796L1055.7 83.8742C1055.87 82.8308 1055.2 81.8368 1054.16 81.6053L1041.41 78.742C1040.64 78.5697 1040.05 77.9635 1039.89 77.193L1037.07 63.4519C1036.94 62.8204 1037.12 62.1651 1037.56 61.6918L1045.62 52.9687C1046.27 52.2712 1046.33 51.2166 1045.78 50.4449L1036.72 37.8275C1036.12 36.9901 1034.98 36.7465 1034.09 37.265L1022.94 43.7584C1022.3 44.1274 1021.52 44.1197 1020.89 43.7384L1009.71 36.935C1009.11 36.5721 1008.75 35.9245 1008.75 35.2264V19.6665C1008.75 18.6858 1008.04 17.8498 1007.07 17.6924Z" stroke="black" stroke-width="4" stroke-linecap="round" stroke-linejoin="round"/>
<ellipse cx="988.5" cy="83" rx="28.5" ry="28" stroke="black" stroke-width="4" stroke-linecap="round" stroke-linejoin="round"/>
<path d="M542.039 272.037L574.096 294.509C575.149 295.247 575.242 296.774 574.285 297.634L543.786 325.054M479.273 275.143L452.974 304.053C452.181 304.925 452.31 306.29 453.252 306.998L483.534 329.755M522.687 264.2L500.954 338.032" stroke="black" stroke-width="4" stroke-linecap="round" stroke-linejoin="round"/>
<path d="M255.011 250.289L272.577 265.824C273.54 266.676 273.46 268.203 272.413 268.95L252.376 283.241M215.928 247.812L198.238 263.324C197.352 264.101 197.326 265.472 198.183 266.282L214.737 281.928M243.578 244.079L224.944 288.274" stroke="black" stroke-width="4" stroke-linecap="round" stroke-linejoin="round"/>
<path d="M550.5 51.3588L562.73 64.0351C563.449 64.7802 563.481 65.9508 562.803 66.7333L549.3 82.3206M521.4 46L505.204 64.0121C504.52 64.7732 504.52 65.9283 505.206 66.6886L519.3 82.3206M525.3 49.5725L525.466 51.3588M528.6 85L527.13 69.2214M527.13 69.2214C557.295 73.0916 547.2 45.1069 525.466 51.3588M527.13 69.2214L525.466 51.3588" stroke="black" stroke-width="4" stroke-linecap="round" stroke-linejoin="round"/>
<path d="M45.7122 393.85L45.2049 379.086M64.8222 388.134L60.9829 375.299M60.9829 375.299L58.635 367.449C58.4984 366.993 58.2008 366.603 57.8101 366.33C53.212 363.118 50.2554 358.197 47.5429 352.896C46.5672 350.989 43.82 351.712 43.9283 353.851L45.2049 379.086M60.9829 375.299L45.2049 379.086" stroke="black" stroke-width="4" stroke-linecap="round" stroke-linejoin="round"/>
<ellipse cx="59.5" cy="441" rx="5.5" ry="5" stroke="black" stroke-width="4" stroke-linecap="round" stroke-linejoin="round"/>
<circle cx="572.739" cy="512.981" r="3.27481" transform="rotate(-45 572.739 512.981)" fill="black"/>
<circle cx="582.002" cy="503.719" r="3.27481" transform="rotate(-45 582.002 503.719)" fill="black"/>
<path d="M205 5.29508L209.032 2.22089C210.29 1.26153 212.111 2.07387 212.238 3.651L215 38" stroke="black" stroke-width="4" stroke-linecap="round" stroke-linejoin="round"/>
<path d="M222 5.29508L226.032 2.22089C227.29 1.26153 229.111 2.07387 229.238 3.651L232 38" stroke="black" stroke-width="4" stroke-linecap="round" stroke-linejoin="round"/>
<path d="M239 5.29508L244.583 1.74762C245.842 0.947351 247.503 1.75828 247.646 3.24358L251 38" stroke="black" stroke-width="4" stroke-linecap="round" stroke-linejoin="round"/>
<path d="M182.785 7.4778C169.616 11.9225 164.716 41.2576 182.785 37.7019C203.611 30.8866 193.811 3.03307 182.785 7.4778Z" stroke="black" stroke-width="4" stroke-linecap="round" stroke-linejoin="round"/>
<path d="M271.294 7.4778C258.674 11.9225 253.978 41.2576 271.294 37.7019C291.252 30.8866 281.86 3.03307 271.294 7.4778Z" stroke="black" stroke-width="4" stroke-linecap="round" stroke-linejoin="round"/>
<path d="M303.785 7.4778C290.616 11.9225 285.716 41.2576 303.785 37.7019C324.611 30.8866 314.811 3.03307 303.785 7.4778Z" stroke="black" stroke-width="4" stroke-linecap="round" stroke-linejoin="round"/>
<path d="M336.803 7.4778C324.732 11.9225 320.24 41.2576 336.803 37.7019C355.893 30.8866 346.91 3.03307 336.803 7.4778Z" stroke="black" stroke-width="4" stroke-linecap="round" stroke-linejoin="round"/>
<ellipse cx="401.5" cy="12" rx="6.5" ry="7" stroke="black" stroke-width="4" stroke-linecap="round" stroke-linejoin="round"/>
<ellipse cx="452" cy="12" rx="8" ry="7" stroke="black" stroke-width="4" stroke-linecap="round" stroke-linejoin="round"/>
<circle cx="608" cy="14" r="7" stroke="black" stroke-width="4" stroke-linecap="round" stroke-linejoin="round"/>
<ellipse cx="642.5" cy="12" rx="6.5" ry="7" stroke="black" stroke-width="4" stroke-linecap="round" stroke-linejoin="round"/>
<ellipse cx="608" cy="78.5" rx="7" ry="6.5" stroke="black" stroke-width="4" stroke-linecap="round" stroke-linejoin="round"/>
<ellipse cx="606.5" cy="149" rx="6.5" ry="7" stroke="black" stroke-width="4" stroke-linecap="round" stroke-linejoin="round"/>
<ellipse cx="615" cy="201" rx="7" ry="8" stroke="black" stroke-width="4" stroke-linecap="round" stroke-linejoin="round"/>
<ellipse cx="452" cy="63" rx="8" ry="7" stroke="black" stroke-width="4" stroke-linecap="round" stroke-linejoin="round"/>
<ellipse cx="441" cy="156.5" rx="7" ry="7.5" stroke="black" stroke-width="4" stroke-linecap="round" stroke-linejoin="round"/>
<ellipse cx="405.5" cy="193" rx="7.5" ry="7" stroke="black" stroke-width="4" stroke-linecap="round" stroke-linejoin="round"/>
<ellipse cx="377.5" cy="210" rx="6.5" ry="7" stroke="black" stroke-width="4" stroke-linecap="round" stroke-linejoin="round"/>
<ellipse cx="372.5" cy="274.5" rx="6.5" ry="7.5" stroke="black" stroke-width="4" stroke-linecap="round" stroke-linejoin="round"/>
<ellipse cx="352" cy="420.5" rx="7" ry="6.5" stroke="black" stroke-width="4" stroke-linecap="round" stroke-linejoin="round"/>
<ellipse cx="250" cy="431" rx="8" ry="7" stroke="black" stroke-width="4" stroke-linecap="round" stroke-linejoin="round"/>
<circle cx="219.5" cy="465.5" r="7.5" stroke="black" stroke-width="4" stroke-linecap="round" stroke-linejoin="round"/>
<ellipse cx="119.5" cy="404.5" rx="6.5" ry="7.5" stroke="black" stroke-width="4" stroke-linecap="round" stroke-linejoin="round"/>
<ellipse cx="13.5" cy="210" rx="6.5" ry="7" stroke="black" stroke-width="4" stroke-linecap="round" stroke-linejoin="round"/>
<ellipse cx="16" cy="294" rx="8" ry="7" stroke="black" stroke-width="4" stroke-linecap="round" stroke-linejoin="round"/>
<circle cx="44" cy="258" r="7" stroke="black" stroke-width="4" stroke-linecap="round" stroke-linejoin="round"/>
<circle cx="123" cy="292" r="7" stroke="black" stroke-width="4" stroke-linecap="round" stroke-linejoin="round"/>
<circle cx="88.5" cy="273.5" r="6.5" stroke="black" stroke-width="4" stroke-linecap="round" stroke-linejoin="round"/>
<circle cx="95.5" cy="309.5" r="6.5" stroke="black" stroke-width="4" stroke-linecap="round" stroke-linejoin="round"/>
<ellipse cx="370.5" cy="496" rx="6.5" ry="7" stroke="black" stroke-width="4" stroke-linecap="round" stroke-linejoin="round"/>
<circle cx="422" cy="547" r="7" stroke="black" stroke-width="4" stroke-linecap="round" stroke-linejoin="round"/>
<circle cx="426.5" cy="602.5" r="7.5" stroke="black" stroke-width="4" stroke-linecap="round" stroke-linejoin="round"/>
<ellipse cx="475" cy="572.5" rx="7" ry="6.5" stroke="black" stroke-width="4" stroke-linecap="round" stroke-linejoin="round"/>
<ellipse cx="455.5" cy="543.5" rx="7.5" ry="6.5" stroke="black" stroke-width="4" stroke-linecap="round" stroke-linejoin="round"/>
<circle cx="448.5" cy="496.5" r="7.5" stroke="black" stroke-width="4" stroke-linecap="round" stroke-linejoin="round"/>
<ellipse cx="494" cy="496.5" rx="7" ry="7.5" stroke="black" stroke-width="4" stroke-linecap="round" stroke-linejoin="round"/>
<ellipse cx="523.5" cy="566" rx="7.5" ry="7" stroke="black" stroke-width="4" stroke-linecap="round" stroke-linejoin="round"/>
<ellipse cx="519.5" cy="605" rx="6.5" ry="7" stroke="black" stroke-width="4" stroke-linecap="round" stroke-linejoin="round"/>
<ellipse cx="531" cy="496.5" rx="7" ry="7.5" stroke="black" stroke-width="4" stroke-linecap="round" stroke-linejoin="round"/>
<ellipse cx="560.5" cy="602.5" rx="6.5" ry="7.5" stroke="black" stroke-width="4" stroke-linecap="round" stroke-linejoin="round"/>
<ellipse cx="601.5" cy="598" rx="6.5" ry="7" stroke="black" stroke-width="4" stroke-linecap="round" stroke-linejoin="round"/>
<ellipse cx="629.5" cy="494" rx="7.5" ry="7" stroke="black" stroke-width="4" stroke-linecap="round" stroke-linejoin="round"/>
<circle cx="670.5" cy="530.5" r="7.5" stroke="black" stroke-width="4" stroke-linecap="round" stroke-linejoin="round"/>
<circle cx="720.5" cy="530.5" r="7.5" stroke="black" stroke-width="4" stroke-linecap="round" stroke-linejoin="round"/>
<circle cx="708.5" cy="595.5" r="7.5" stroke="black" stroke-width="4" stroke-linecap="round" stroke-linejoin="round"/>
<ellipse cx="760.5" cy="595.5" rx="6.5" ry="7.5" stroke="black" stroke-width="4" stroke-linecap="round" stroke-linejoin="round"/>
<ellipse cx="757.5" cy="490.5" rx="7.5" ry="6.5" stroke="black" stroke-width="4" stroke-linecap="round" stroke-linejoin="round"/>
<circle cx="791" cy="590" r="7" stroke="black" stroke-width="4" stroke-linecap="round" stroke-linejoin="round"/>
<ellipse cx="791" cy="530.5" rx="7" ry="7.5" stroke="black" stroke-width="4" stroke-linecap="round" stroke-linejoin="round"/>
<ellipse cx="785" cy="477" rx="8" ry="7" stroke="black" stroke-width="4" stroke-linecap="round" stroke-linejoin="round"/>
<circle cx="846" cy="499" r="7" stroke="black" stroke-width="4" stroke-linecap="round" stroke-linejoin="round"/>
<circle cx="841" cy="595" r="7" stroke="black" stroke-width="4" stroke-linecap="round" stroke-linejoin="round"/>
<circle cx="878" cy="511" r="7" stroke="black" stroke-width="4" stroke-linecap="round" stroke-linejoin="round"/>
<ellipse cx="882.5" cy="595" rx="7.5" ry="7" stroke="black" stroke-width="4" stroke-linecap="round" stroke-linejoin="round"/>
<ellipse cx="936.5" cy="595.5" rx="6.5" ry="7.5" stroke="black" stroke-width="4" stroke-linecap="round" stroke-linejoin="round"/>
<ellipse cx="1053.5" cy="574" rx="7.5" ry="7" stroke="black" stroke-width="4" stroke-linecap="round" stroke-linejoin="round"/>
<ellipse cx="1073" cy="530.5" rx="7" ry="7.5" stroke="black" stroke-width="4" stroke-linecap="round" stroke-linejoin="round"/>
<ellipse cx="911.5" cy="567.5" rx="7.5" ry="6.5" stroke="black" stroke-width="4" stroke-linecap="round" stroke-linejoin="round"/>
<ellipse cx="952" cy="465.5" rx="7" ry="7.5" stroke="black" stroke-width="4" stroke-linecap="round" stroke-linejoin="round"/>
<ellipse cx="954.5" cy="425.5" rx="7.5" ry="6.5" stroke="black" stroke-width="4" stroke-linecap="round" stroke-linejoin="round"/>
<ellipse cx="952" cy="387" rx="7" ry="8" stroke="black" stroke-width="4" stroke-linecap="round" stroke-linejoin="round"/>
<circle cx="989.5" cy="425.5" r="6.5" stroke="black" stroke-width="4" stroke-linecap="round" stroke-linejoin="round"/>
<ellipse cx="920" cy="453" rx="8" ry="7" stroke="black" stroke-width="4" stroke-linecap="round" stroke-linejoin="round"/>
<ellipse cx="993" cy="359.5" rx="7" ry="7.5" stroke="black" stroke-width="4" stroke-linecap="round" stroke-linejoin="round"/>
<circle cx="1046" cy="352" r="7" stroke="black" stroke-width="4" stroke-linecap="round" stroke-linejoin="round"/>
<circle cx="1073" cy="330" r="7" stroke="black" stroke-width="4" stroke-linecap="round" stroke-linejoin="round"/>
<circle cx="1070" cy="395" r="7" stroke="black" stroke-width="4" stroke-linecap="round" stroke-linejoin="round"/>
<ellipse cx="1065.5" cy="425.5" rx="7.5" ry="6.5" stroke="black" stroke-width="4" stroke-linecap="round" stroke-linejoin="round"/>
<ellipse cx="835.5" cy="153" rx="6.5" ry="8" stroke="black" stroke-width="4" stroke-linecap="round" stroke-linejoin="round"/>
<circle cx="1029.5" cy="395.5" r="7.5" stroke="black" stroke-width="4" stroke-linecap="round" stroke-linejoin="round"/>
<ellipse cx="799" cy="123" rx="8" ry="7" stroke="black" stroke-width="4" stroke-linecap="round" stroke-linejoin="round"/>
<ellipse cx="1070" cy="259" rx="7" ry="8" stroke="black" stroke-width="4" stroke-linecap="round" stroke-linejoin="round"/>
<circle cx="1070" cy="222" r="7" stroke="black" stroke-width="4" stroke-linecap="round" stroke-linejoin="round"/>
<circle cx="1070" cy="145" r="7" stroke="black" stroke-width="4" stroke-linecap="round" stroke-linejoin="round"/>
<ellipse cx="1070" cy="65.5" rx="7" ry="7.5" stroke="black" stroke-width="4" stroke-linecap="round" stroke-linejoin="round"/>
<ellipse cx="1060.5" cy="15.5" rx="7.5" ry="6.5" stroke="black" stroke-width="4" stroke-linecap="round" stroke-linejoin="round"/>
<ellipse cx="935.5" cy="15.5" rx="7.5" ry="6.5" stroke="black" stroke-width="4" stroke-linecap="round" stroke-linejoin="round"/>
<circle cx="770.5" cy="15.5" r="6.5" stroke="black" stroke-width="4" stroke-linecap="round" stroke-linejoin="round"/>
<ellipse cx="773" cy="72" rx="8" ry="7" stroke="black" stroke-width="4" stroke-linecap="round" stroke-linejoin="round"/>
<circle cx="741.5" cy="15.5" r="6.5" stroke="black" stroke-width="4" stroke-linecap="round" stroke-linejoin="round"/>
<ellipse cx="788" cy="206" rx="7" ry="8" stroke="black" stroke-width="4" stroke-linecap="round" stroke-linejoin="round"/>
<ellipse cx="782.5" cy="243" rx="6.5" ry="7" stroke="black" stroke-width="4" stroke-linecap="round" stroke-linejoin="round"/>
<circle cx="748.5" cy="184.5" r="6.5" stroke="black" stroke-width="4" stroke-linecap="round" stroke-linejoin="round"/>
<ellipse cx="639" cy="191.5" rx="7" ry="6.5" stroke="black" stroke-width="4" stroke-linecap="round" stroke-linejoin="round"/>
<circle cx="663.5" cy="231.5" r="7.5" stroke="black" stroke-width="4" stroke-linecap="round" stroke-linejoin="round"/>
<circle cx="668" cy="272" r="7" stroke="black" stroke-width="4" stroke-linecap="round" stroke-linejoin="round"/>
<ellipse cx="815" cy="267.5" rx="7" ry="7.5" stroke="black" stroke-width="4" stroke-linecap="round" stroke-linejoin="round"/>
<circle cx="794.5" cy="343.5" r="6.5" stroke="black" stroke-width="4" stroke-linecap="round" stroke-linejoin="round"/>
<ellipse cx="794.5" cy="388" rx="6.5" ry="7" stroke="black" stroke-width="4" stroke-linecap="round" stroke-linejoin="round"/>
<ellipse cx="767" cy="385.5" rx="7" ry="7.5" stroke="black" stroke-width="4" stroke-linecap="round" stroke-linejoin="round"/>
<circle cx="796" cy="429" r="7" stroke="black" stroke-width="4" stroke-linecap="round" stroke-linejoin="round"/>
<ellipse cx="641" cy="402.5" rx="7" ry="7.5" stroke="black" stroke-width="4" stroke-linecap="round" stroke-linejoin="round"/>
<circle cx="605.5" cy="395.5" r="7.5" stroke="black" stroke-width="4" stroke-linecap="round" stroke-linejoin="round"/>
<ellipse cx="341.5" cy="202.5" rx="6.5" ry="7.5" stroke="black" stroke-width="4" stroke-linecap="round" stroke-linejoin="round"/>
<circle cx="296.5" cy="180.5" r="7.5" stroke="black" stroke-width="4" stroke-linecap="round" stroke-linejoin="round"/>
<ellipse cx="260.5" cy="172.5" rx="7.5" ry="6.5" stroke="black" stroke-width="4" stroke-linecap="round" stroke-linejoin="round"/>
<circle cx="258" cy="123" r="7" stroke="black" stroke-width="4" stroke-linecap="round" stroke-linejoin="round"/>
<circle cx="260.5" cy="62.5" r="7.5" stroke="black" stroke-width="4" stroke-linecap="round" stroke-linejoin="round"/>
<circle cx="232" cy="99" r="7" stroke="black" stroke-width="4" stroke-linecap="round" stroke-linejoin="round"/>
<ellipse cx="203" cy="107" rx="7" ry="8" stroke="black" stroke-width="4" stroke-linecap="round" stroke-linejoin="round"/>
<ellipse cx="203" cy="60.5" rx="7" ry="7.5" stroke="black" stroke-width="4" stroke-linecap="round" stroke-linejoin="round"/>
<ellipse cx="225.5" cy="183.5" rx="6.5" ry="7.5" stroke="black" stroke-width="4" stroke-linecap="round" stroke-linejoin="round"/>
<ellipse cx="164" cy="119.5" rx="7" ry="6.5" stroke="black" stroke-width="4" stroke-linecap="round" stroke-linejoin="round"/>
<ellipse cx="13.5" cy="113.5" rx="6.5" ry="7.5" stroke="black" stroke-width="4" stroke-linecap="round" stroke-linejoin="round"/>
<ellipse cx="165.5" cy="186" rx="6.5" ry="7" stroke="black" stroke-width="4" stroke-linecap="round" stroke-linejoin="round"/>
<circle cx="119.5" cy="338.5" r="6.5" stroke="black" stroke-width="4" stroke-linecap="round" stroke-linejoin="round"/>
<ellipse cx="163" cy="549" rx="8" ry="7" stroke="black" stroke-width="4" stroke-linecap="round" stroke-linejoin="round"/>
<ellipse cx="214.5" cy="596.5" rx="7.5" ry="6.5" stroke="black" stroke-width="4" stroke-linecap="round" stroke-linejoin="round"/>
<ellipse cx="452" cy="207" rx="8" ry="7" stroke="black" stroke-width="4" stroke-linecap="round" stroke-linejoin="round"/>
<ellipse cx="486" cy="152" rx="8" ry="7" stroke="black" stroke-width="4" stroke-linecap="round" stroke-linejoin="round"/>
<ellipse cx="547" cy="127.5" rx="5" ry="4.5" stroke="black" stroke-width="4" stroke-linecap="round" stroke-linejoin="round"/>
<circle cx="27.5" cy="512.5" r="3.5" fill="black"/>
<circle cx="36.5" cy="513.5" r="2.5" fill="black"/>
<path d="M63.638 176.918L73.843 197.628C74.5052 198.972 76.3555 199.138 77.2457 197.933L105.601 159.549M31 212.253C36.1729 228.439 43.1259 234.498 61.3067 241M126 210.755C121.342 227.445 116.254 234.68 99.4816 241M78.7851 232.225C114.11 216.207 122.987 197.536 118.847 148.504C118.772 147.61 118.103 146.859 117.223 146.689C100.689 143.499 91.9806 140.155 78.9622 132.609C78.3202 132.237 77.5204 132.247 76.8878 132.635C64.3008 140.358 55.9459 143.764 40.13 146.691C39.2201 146.859 38.5362 147.651 38.4859 148.575C35.4837 203.791 47.8496 217.671 77.0671 232.195C77.5995 232.46 78.2436 232.47 78.7851 232.225Z" stroke="black" stroke-width="4" stroke-linecap="round" stroke-linejoin="round"/>
<path d="M855.771 70.1538C856.203 68.6946 856.436 67.1447 856.436 65.5385C856.436 56.8718 849.666 49.8462 841.314 49.8462C832.962 49.8462 826.192 56.8718 826.192 65.5385C826.192 68.2108 826.836 70.7272 827.971 72.9296M855.771 70.1538C853.872 76.568 848.118 81.2308 841.314 81.2308C835.538 81.2308 830.518 77.8698 827.971 72.9296M855.771 70.1538C861.764 73.9164 863.458 76.8276 862.366 84M827.971 72.9296C819.899 74.7643 817.559 76.7777 821.448 84M824.709 53.5385C819.71 49.2915 818.24 46.6071 818.186 41.2308M854.953 49.8462C852.103 45.1385 852.421 42.8914 853.767 38.7692C854.801 35.6051 859.003 35.1117 858.808 32M865.924 43.6923C866.362 49.2197 864.958 51.1483 858.808 52M868 61.2308C864.279 61.3431 862.265 60.8163 858.808 58.7692M817 59.6923C817.758 63.385 819.165 63.8794 822.337 63.6923M829.157 33.8462C827.47 35.9989 828.66 37.4683 829.157 39.6923C829.754 42.3641 833.301 42.8721 832.419 45.8462" stroke="black" stroke-width="4" stroke-linecap="round" stroke-linejoin="round"/>
<ellipse cx="841.5" cy="35.5" rx="4.5" ry="3.5" fill="black"/>
<path d="M891.722 106.711L883.371 114.779C880.288 117.758 880.101 122.638 882.947 125.844L897.115 141.803C900.519 145.638 906.601 145.325 909.594 141.161L913.879 135.199C915.987 132.266 915.869 128.285 913.59 125.483L898.664 107.128C896.919 104.982 893.711 104.79 891.722 106.711V106.711ZM891.722 106.711L880.535 96.5891M869.519 105.818L876.069 112.07" stroke="black" stroke-width="4" stroke-linecap="round" stroke-linejoin="round"/>
<ellipse cx="842.5" cy="58" rx="42.5" ry="43" stroke="black" stroke-width="4" stroke-linecap="round" stroke-linejoin="round"/>
<ellipse cx="842.5" cy="58" rx="54.5" ry="55" stroke="black" stroke-width="4" stroke-linecap="round" stroke-linejoin="round"/>
<path d="M257.917 131.16L260 166M10 17.9282C23.9881 13.423 32.3214 26.3379 21.0119 34.7477M202.56 67.786V99.0223" stroke="black" stroke-width="4" stroke-linecap="round" stroke-linejoin="round"/>
<path d="M256 68L236 92" stroke="black" stroke-width="4" stroke-linecap="round" stroke-linejoin="round"/>
<path d="M225 104V140" stroke="black" stroke-width="4" stroke-linecap="round" stroke-linejoin="round"/>
<path d="M167 126L220 179" stroke="black" stroke-width="4" stroke-linecap="round" stroke-linejoin="round"/>
<path d="M85 92V113.971C85 115.087 84.0869 115.987 82.9712 115.971L20 115.065" stroke="black" stroke-width="4" stroke-linecap="round" stroke-linejoin="round"/>
<path d="M13 219V285" stroke="black" stroke-width="4" stroke-linecap="round" stroke-linejoin="round"/>
<path d="M118 285L106.961 272.666C106.582 272.242 106.04 272 105.471 272H97" stroke="black" stroke-width="4" stroke-linecap="round" stroke-linejoin="round"/>
<path d="M82 273L59.6056 275.075C59.0593 275.125 58.5578 275.398 58.2185 275.829L51 285" stroke="black" stroke-width="4" stroke-linecap="round" stroke-linejoin="round"/>
<path d="M99 316L114 333" stroke="black" stroke-width="4" stroke-linecap="round" stroke-linejoin="round"/>
<path d="M128 405L204.311 407.634C204.882 407.654 205.418 407.916 205.782 408.356L216.349 421.102C216.608 421.414 216.765 421.797 216.801 422.201L220 458" stroke="black" stroke-width="4" stroke-linecap="round" stroke-linejoin="round"/>
<path d="M251 424L249 402" stroke="black" stroke-width="4" stroke-linecap="round" stroke-linejoin="round"/>
<path d="M272 415L283.989 402.609C284.366 402.22 284.885 402 285.426 402H331" stroke="black" stroke-width="4" stroke-linecap="round" stroke-linejoin="round"/>
<path d="M136 586H153.888C154.325 586 154.75 585.857 155.098 585.592L163.211 579.422C163.708 579.044 164 578.455 164 577.83V557" stroke="black" stroke-width="4" stroke-linecap="round" stroke-linejoin="round"/>
<path d="M215 573H190C188.895 573 188 573.895 188 575V585.484C188 585.758 188.057 586.03 188.166 586.282L192.308 595.798C192.626 596.528 193.346 597 194.142 597H205.621" stroke="black" stroke-width="4" stroke-linecap="round" stroke-linejoin="round"/>
<path d="M356.29 414L380.367 391.459C380.771 391.081 381 390.552 381 389.999V381.064C381 380.506 380.767 379.974 380.357 379.595L365.269 365.657C364.859 365.278 364.626 364.746 364.626 364.188V322.948M364.626 322.948L342 301M364.626 322.948L371.473 317.312" stroke="black" stroke-width="4" stroke-linecap="round" stroke-linejoin="round"/>
<path d="M366 273H340" stroke="black" stroke-width="4" stroke-linecap="round" stroke-linejoin="round"/>
<path d="M347.074 207L351.302 210.628C351.745 211.008 352 211.562 352 212.146V246.389C352 246.88 351.819 247.353 351.493 247.72L345 255" stroke="black" stroke-width="4" stroke-linecap="round" stroke-linejoin="round"/>
<path d="M401 21V63" stroke="black" stroke-width="4" stroke-linecap="round" stroke-linejoin="round"/>
<path d="M453 21V55" stroke="black" stroke-width="4" stroke-linecap="round" stroke-linejoin="round"/>
<path d="M451 72V84.9279C451 85.3478 451.132 85.7571 451.378 86.0976L460.622 98.9188C460.868 99.2593 461 99.6686 461 100.088V126" stroke="black" stroke-width="4" stroke-linecap="round" stroke-linejoin="round"/>
<path d="M436 162L412 188" stroke="black" stroke-width="4" stroke-linecap="round" stroke-linejoin="round"/>
<path d="M483 159L449.697 187.58C449.255 187.96 449 188.514 449 189.098V202" stroke="black" stroke-width="4" stroke-linecap="round" stroke-linejoin="round"/>
<path d="M377 496H410.473C410.95 496 411.411 496.17 411.774 496.481L421.301 504.635C421.744 505.015 422 505.57 422 506.155V538" stroke="black" stroke-width="4" stroke-linecap="round" stroke-linejoin="round"/>
<path d="M448 504V524.5C448 524.809 448.072 525.115 448.21 525.392L453 535" stroke="black" stroke-width="4" stroke-linecap="round" stroke-linejoin="round"/>
<path d="M455.1 550V572.118M455.1 572.118L432 597M455.1 572.118H468" stroke="black" stroke-width="4" stroke-linecap="round" stroke-linejoin="round"/>
<path d="M499 578L489.485 589.044C489.172 589.407 489 589.871 489 590.35V603" stroke="black" stroke-width="4" stroke-linecap="round" stroke-linejoin="round"/>
<path d="M492 504V532.471C492 532.979 492.193 533.468 492.541 533.839L518 561" stroke="black" stroke-width="4" stroke-linecap="round" stroke-linejoin="round"/>
<path d="M530.246 504L528.075 529.9C528.027 530.466 528.223 531.025 528.613 531.439L559.455 564.145C559.805 564.516 560 565.007 560 565.517V593" stroke="black" stroke-width="4" stroke-linecap="round" stroke-linejoin="round"/>
<path d="M595 598H580.938C580.664 598 580.393 598.056 580.142 598.165L569 603" stroke="black" stroke-width="4" stroke-linecap="round" stroke-linejoin="round"/>
<path d="M716 597H752" stroke="black" stroke-width="4" stroke-linecap="round" stroke-linejoin="round"/>
<path d="M632 501L654.339 529.241C654.719 529.72 655.297 530 655.908 530H663" stroke="black" stroke-width="4" stroke-linecap="round" stroke-linejoin="round"/>
<path d="M678 530H713" stroke="black" stroke-width="4" stroke-linecap="round" stroke-linejoin="round"/>
<path d="M719 538L723.705 545.665C723.898 545.98 724 546.342 724 546.711V573" stroke="black" stroke-width="4" stroke-linecap="round" stroke-linejoin="round"/>
<path d="M612 400H634" stroke="black" stroke-width="4" stroke-linecap="round" stroke-linejoin="round"/>
<path d="M764 393L760 432" stroke="black" stroke-width="4" stroke-linecap="round" stroke-linejoin="round"/>
<path d="M791 434L762 460" stroke="black" stroke-width="4" stroke-linecap="round" stroke-linejoin="round"/>
<path d="M796 350L795 379" stroke="black" stroke-width="4" stroke-linecap="round" stroke-linejoin="round"/>
<path d="M812 275V284.71C812 285.175 811.838 285.626 811.542 285.985L795 306" stroke="black" stroke-width="4" stroke-linecap="round" stroke-linejoin="round"/>
<path d="M795 205H833.48C833.878 205 834.266 204.882 834.596 204.66L846 197" stroke="black" stroke-width="4" stroke-linecap="round" stroke-linejoin="round"/>
<path d="M648 191H698.851C699.335 191 699.804 190.824 700.168 190.505L708.178 183.495C708.543 183.176 709.011 183 709.495 183H740" stroke="black" stroke-width="4" stroke-linecap="round" stroke-linejoin="round"/>
<path d="M748 193V222" stroke="black" stroke-width="4" stroke-linecap="round" stroke-linejoin="round"/>
<path d="M671 232.52L708.78 237.186C709.862 237.32 710.851 236.562 711.005 235.483L711.957 228.788C712.101 227.772 712.998 227.025 714.021 227.102C727.212 228.098 730.032 234.193 730 250" stroke="black" stroke-width="4" stroke-linecap="round" stroke-linejoin="round"/>
<path d="M666 280L665 311" stroke="black" stroke-width="4" stroke-linecap="round" stroke-linejoin="round"/>
<path d="M535 210V220" stroke="black" stroke-width="4" stroke-linecap="round" stroke-linejoin="round"/>
<path d="M607 142V111" stroke="black" stroke-width="4" stroke-linecap="round" stroke-linejoin="round"/>
<path d="M636 15H627.383C626.749 15 626.153 15.3005 625.775 15.8101L608.393 39.2923C608.138 39.6367 608 40.0538 608 40.4823V72" stroke="black" stroke-width="4" stroke-linecap="round" stroke-linejoin="round"/>
<path d="M771 22L772 63" stroke="black" stroke-width="4" stroke-linecap="round" stroke-linejoin="round"/>
<path d="M1029 403V422.211C1029 423.265 1029.82 424.137 1030.87 424.207L1058 426" stroke="black" stroke-width="4" stroke-linecap="round" stroke-linejoin="round"/>
<path d="M800 132V148.453C800 149.51 800.822 150.384 801.877 150.449L827 152" stroke="black" stroke-width="4" stroke-linecap="round" stroke-linejoin="round"/>
<path d="M756.295 497L754.04 543.251C754.014 543.778 754.198 544.294 754.55 544.686L789 583" stroke="black" stroke-width="4" stroke-linecap="round" stroke-linejoin="round"/>
<path d="M840.677 588V578.789M840.677 537.783L845.603 531.184C845.861 530.838 846 530.418 846 529.987V506.88M840.677 537.783L791 484M840.677 537.783V578.789M840.677 578.789L797.801 535.703" stroke="black" stroke-width="4" stroke-linecap="round" stroke-linejoin="round"/>
<path d="M878 518L882.874 531.083C882.957 531.307 883 531.543 883 531.782V586" stroke="black" stroke-width="4" stroke-linecap="round" stroke-linejoin="round"/>
<path d="M911 559V498.643C911 498.145 911.186 497.665 911.521 497.296L935.782 470.653C936.161 470.237 936.698 470 937.261 470H947" stroke="black" stroke-width="4" stroke-linecap="round" stroke-linejoin="round"/>
<path d="M952 473V498.404C952 498.904 951.812 499.386 951.474 499.755L943 509" stroke="black" stroke-width="4" stroke-linecap="round" stroke-linejoin="round"/>
<path d="M890 595H928" stroke="black" stroke-width="4" stroke-linecap="round" stroke-linejoin="round"/>
<path d="M1068 537L1056 566" stroke="black" stroke-width="4" stroke-linecap="round" stroke-linejoin="round"/>
<path d="M923 444V371.27C923 370.647 923.29 370.06 923.785 369.682L946.372 352.411C946.721 352.145 947.148 352 947.587 352H962.49C962.915 352 963.329 352.135 963.672 352.387L972 358.487" stroke="black" stroke-width="4" stroke-linecap="round" stroke-linejoin="round"/>
<path d="M960 388H986C987.105 388 988 388.895 988 390V417" stroke="black" stroke-width="4" stroke-linecap="round" stroke-linejoin="round"/>
<path d="M959 431L984 458" stroke="black" stroke-width="4" stroke-linecap="round" stroke-linejoin="round"/>
<path d="M1071 337L1070 386" stroke="black" stroke-width="4" stroke-linecap="round" stroke-linejoin="round"/>
<path d="M1070 267V290.32C1070 290.729 1069.87 291.128 1069.64 291.463L1063 301" stroke="black" stroke-width="4" stroke-linecap="round" stroke-linejoin="round"/>
<path d="M1070 154V214" stroke="black" stroke-width="4" stroke-linecap="round" stroke-linejoin="round"/>
<path d="M166.322 483.446L144.163 465.893M166.322 483.446V448.636M166.322 483.446C166.322 483.446 166.322 495.347 163.714 501M163.714 501L134.084 473.926M163.714 501L179.131 494.443C182.083 493.187 184 490.289 184 487.081V443.053C184 439.928 182.181 437.089 179.341 435.784L164.584 429M125.461 465.287L116.37 456.178C114.501 454.306 114.483 451.279 116.329 449.384V449.384C118.059 447.607 120.854 447.427 122.799 448.968L133.647 457.562M125.461 465.287L116.413 474.368C114.486 476.302 114.371 479.392 116.147 481.465V481.465C117.957 483.577 121.103 483.903 123.308 482.208L134.084 473.926M125.461 465.287L134.084 473.926M144.163 465.893L166.322 448.636M144.163 465.893L133.647 457.562M166.322 448.636C166.322 448.636 166.625 434.108 164.584 429M133.647 457.562L164.584 429" stroke="black" stroke-width="4" stroke-linecap="round" stroke-linejoin="round"/>
<path d="M827 344.341L828.045 355.171M829.089 366L828.045 355.171M828.045 355.171L840.755 354.744M840.755 354.744L841.974 365.488M840.755 354.744L840.013 345.876M839.885 344.341L840.013 345.876M840.013 345.876H850.216M881.325 365.488L880.229 350.701C880.084 348.748 877.509 348.145 876.513 349.831L871.29 358.667M870.181 360.543L871.29 358.667M871.29 358.667L861.389 345.505C861.063 345.071 860.373 345.336 860.42 345.876V345.876M862.172 366L860.42 345.876M860.42 345.876H850.216M886.548 344.341L887.978 363.636C888.055 364.681 888.925 365.488 889.973 365.488H901M850.216 345.876L851.899 365.488" stroke="black" stroke-width="4" stroke-linecap="round" stroke-linejoin="round"/>
<path d="M900.759 437.471L900.154 449.324L864.385 465L827.846 449.324L824 374H904L901.208 428.676" stroke="black" stroke-width="4" stroke-linecap="round" stroke-linejoin="round"/>
<path d="M839 390H887L885.866 400.922H849.961L851.094 411.844H885.11L882.843 440.091L863.189 448L843.913 440.091L842.78 429.169H851.094L852.228 433.312L863.189 436.701L873.016 433.312L874.15 422.013H842.024L839 390Z" stroke="black" stroke-width="4" stroke-linecap="round" stroke-linejoin="round"/>
</g>
<defs>
<clipPath id="clip0_8_247">
<rect width="1080" height="608" fill="white"/>
</clipPath>
</defs>
</svg>